<?xml version="1.0" standalone="no"?><!DOCTYPE svg PUBLIC "-//W3C//DTD SVG 1.1//EN" "http://www.w3.org/Graphics/SVG/1.1/DTD/svg11.dtd"><svg t="1494128984975" class="icon" style="" viewBox="0 0 1024 1024" version="1.1" xmlns="http://www.w3.org/2000/svg" p-id="3481" xmlns:xlink="http://www.w3.org/1999/xlink" width="200" height="200"><defs><style type="text/css"></style></defs><path d="M844.879105 444.757526c0.311098-5.243421 0.789002-10.450003 0.789002-15.765055 0-145.013745-117.548023-262.568091-262.580135-262.568091-104.57298 0-194.601098 61.273529-236.83267 149.742443-20.48131-15.883759-46.133603-25.436322-74.060801-25.436322-66.891217 0-121.128722 54.235229-121.128722 121.121592 0 12.568247 1.91571 24.694425 5.470825 36.08894-52.142709 31.014364-84.816201 87.750553-84.816201 152.830781 0 97.303116 79.233831 176.218444 177.47535 177.715541l84.837691-5.259794-56.236106-64.478524c-24.072242-28.774347-29.78253-64.081481-15.274509-95.120404 14.495741-31.025621 45.547224-49.155537 83.06218-49.155537l37.669482 0L383.25449 467.858664c0-58.053184 48.467862-110.093421 106.535763-110.093421l36.724931 0c58.067901 0 102.343102 52.040237 102.343102 110.093421l0 96.614431 41.863167 0c37.513933 0 68.565416 19.47147 83.061157 50.497091 14.508021 31.038924 8.798756 64.532759-15.297023 93.331665l-56.212569 64.925708c0 0 92.661195 3.163039 95.869395 3.163039 96.003454 0 173.821993-76.474742 173.821993-172.47212C951.96543 531.561521 907.747537 470.923466 844.879105 444.757526z" p-id="3482"></path><path d="M670.7235 639.174448l-80.716664 0c-8.726098 0-22.548475 0-34.828665 0L555.178171 467.858664c0-17.451464-11.197486-37.438681-28.661963-37.438681l-36.724931 0c-17.464477 0-32.854624 19.986193-32.854624 37.438681l0 171.315784c-11.256841 0-21.908882 0-30.636004 0l-80.714618 0c-17.464477 0-22.576106 11.314697-11.372479 24.709775l153.555587 183.583179c5.614093 6.691399 12.999604 10.132778 20.385115 10.132778 7.385511 0 14.772045-3.305279 20.385115-9.996678l153.554563-183.741791C693.299605 650.467655 688.187976 639.174448 670.7235 639.174448z" p-id="3483"></path></svg>