<?xml version="1.0" standalone="no"?><!DOCTYPE svg PUBLIC "-//W3C//DTD SVG 1.1//EN" "http://www.w3.org/Graphics/SVG/1.1/DTD/svg11.dtd"><svg t="1494128960636" class="icon" style="" viewBox="0 0 1024 1024" version="1.1" xmlns="http://www.w3.org/2000/svg" p-id="3151" xmlns:xlink="http://www.w3.org/1999/xlink" width="200" height="200"><defs><style type="text/css"></style></defs><path d="M561 128c-184 0-337 129-375 301l-43-71c0 0 0-1-1-1-9-16-31-20-47-10s-23 31-14 47c0 0 1 1 1 1l110 184 60-38 0 0 124-78c0 0 1-1 1-1 15-10 19-31 9-48s-31-22-47-13c0 0-1 1-1 1l-87 55C278 310 406 198 561 198c174 0 314 141 314 314 0 174-141 314-314 314-110 0-206-56-263-142-1-1-1-2-2-2 0-1-1-1-1-2l0 0c-6-8-16-13-27-13-19 0-35 16-35 35 0 7 2 14 6 20l0 0C308 827 427 896 561 896c212 0 384-172 384-384S773 128 561 128z" p-id="3152"></path><path d="M512 528 512 599 725 599c1 0 1 0 2 0 20 0 36-16 36-36s-16-36-36-36c-1 0-1 0-2 0L583 528 583 378c0-1 0-1 0-2 0-20-16-36-36-36s-36 16-36 36c0 1 0 1 0 2L512 528 512 528 512 528z" p-id="3153"></path></svg>