<?xml version="1.0" standalone="no"?><!DOCTYPE svg PUBLIC "-//W3C//DTD SVG 1.1//EN" "http://www.w3.org/Graphics/SVG/1.1/DTD/svg11.dtd"><svg t="1494128979494" class="icon" style="" viewBox="0 0 1024 1024" version="1.1" xmlns="http://www.w3.org/2000/svg" p-id="3373" xmlns:xlink="http://www.w3.org/1999/xlink" width="200" height="200"><defs><style type="text/css"></style></defs><path d="M839.661621 788.930193l-61.015655-553.860387c-3.007497-30.895661-29.595039-55.435567-59.443857-55.435567L280.956903 179.63424c-29.360701 0-56.462966 24.819269-59.443857 55.435567l-61.015655 553.860387c-3.007497 30.895661 18.768459 55.435567 48.577369 55.435567l582.010517 0C821.166385 844.36576 842.642512 819.545468 839.661621 788.930193zM500.079506 518.312776c-103.415324 0-189.022051-77.707826-201.497177-177.799452-1.672082-13.412474 8.800433-25.261337 22.317285-25.261337l0 0c11.423167 0 20.897959 8.584516 22.328541 19.917632 9.82374 77.809133 76.419484 138.182153 156.851351 138.182153s147.027611-60.373019 156.851351-138.182153c1.430582-11.333116 10.905374-19.917632 22.328541-19.917632l0 0c13.516852 0 23.988344 11.847839 22.317285 25.261337C689.101557 440.60495 603.494831 518.312776 500.079506 518.312776z" p-id="3374"></path></svg>